<?xml version="1.0" standalone="no"?>
<!DOCTYPE svg PUBLIC "-//W3C//DTD SVG 20010904//EN"
 "http://www.w3.org/TR/2001/REC-SVG-20010904/DTD/svg10.dtd">
<svg version="1.0" xmlns="http://www.w3.org/2000/svg"
 width="700.000000pt" height="700.000000pt" viewBox="0 0 700.000000 700.000000"
 preserveAspectRatio="xMidYMid meet">
<metadata>
Created by potrace 1.14, written by Peter Selinger 2001-2017
</metadata>
<g transform="translate(0.000000,700.000000) scale(0.100000,-0.100000)"
fill="#000000" stroke="none">
<path d="M0 3500 l0 -3500 3500 0 3500 0 0 3500 0 3500 -3500 0 -3500 0 0
-3500z m2525 190 l0 -685 -127 -3 -128 -3 0 691 0 691 128 -3 127 -3 0 -685z
m2520 644 c83 -39 95 -148 25 -208 -59 -49 -166 -42 -214 15 -31 37 -36 111
-10 148 41 57 130 78 199 45z m-3313 -49 c143 -30 221 -83 270 -182 28 -58 32
-75 32 -147 -1 -121 -42 -200 -130 -252 l-46 -27 37 -18 c93 -46 135 -97 161
-199 13 -52 14 -76 5 -137 -19 -127 -79 -212 -185 -262 -102 -48 -154 -54
-481 -55 l-300 -1 -3 648 -2 647 287 0 c211 0 306 -4 355 -15z m1589 -323 c76
-27 128 -61 177 -117 106 -120 145 -303 106 -492 -48 -235 -207 -363 -450
-363 -229 0 -395 134 -443 358 -14 66 -14 202 -1 273 25 130 111 254 218 312
107 58 273 70 393 29z m947 3 c20 -9 53 -29 73 -45 42 -33 49 -30 49 17 l0 33
121 0 120 0 -3 -517 c-3 -514 -3 -518 -26 -575 -45 -111 -150 -200 -277 -233
-74 -19 -233 -19 -304 0 -73 19 -153 61 -190 99 l-31 32 57 77 57 77 31 -29
c59 -57 111 -76 206 -76 77 0 90 3 127 28 24 15 51 45 63 69 20 39 39 158 25
158 -3 0 -25 -15 -49 -33 -59 -45 -119 -61 -215 -55 -213 12 -347 183 -359
458 -12 278 94 470 290 525 62 18 179 13 235 -10z m1547 14 c167 -31 288 -155
302 -310 l6 -59 -120 0 -120 0 -7 38 c-14 86 -73 136 -161 136 -102 1 -156
-61 -176 -200 -11 -80 -6 -199 12 -266 11 -44 50 -93 90 -113 38 -20 116 -19
159 3 40 20 80 74 80 108 0 24 1 24 121 24 l122 0 -6 -54 c-11 -106 -88 -204
-204 -258 -53 -25 -82 -32 -157 -36 -235 -12 -380 83 -452 294 -23 69 -26 95
-26 199 1 140 20 222 73 311 88 147 270 219 464 183z m-715 -494 l0 -486 -127
3 -128 3 -3 483 -2 482 130 0 130 0 0 -485z"/>
<path d="M1360 3925 l0 -166 143 3 c120 2 148 6 182 24 104 53 111 220 11 280
-26 16 -56 20 -183 22 l-153 4 0 -167z"/>
<path d="M1362 3393 l3 -178 135 0 c165 0 200 7 244 48 84 80 65 239 -34 289
-29 15 -63 18 -193 18 l-157 0 2 -177z"/>
<path d="M3097 3776 c-93 -34 -129 -105 -135 -261 -5 -121 11 -203 50 -258 42
-59 147 -85 222 -53 43 18 91 77 107 135 18 61 18 244 0 296 -20 56 -56 108
-90 128 -41 24 -109 30 -154 13z"/>
<path d="M4154 3780 c-52 -12 -91 -47 -121 -108 -26 -53 -28 -65 -28 -182 0
-80 5 -139 14 -163 17 -50 67 -106 108 -123 68 -29 159 -10 216 43 l27 27 0
213 0 212 -34 35 c-24 24 -50 37 -86 45 -56 12 -52 12 -96 1z"/>
</g>
</svg>
